<svg xmlns="http://www.w3.org/2000/svg" viewBox="0 0 35.81 44.74"><path d="M13.09,43a26.24,26.24,0,0,1-4.58-1.15L8,41.63a2.16,2.16,0,0,1-1.49-2.69A39.53,39.53,0,0,1,8,32.3a54.14,54.14,0,0,1,3.24-8.73c.22-.46-.15-.3-.31-.32-1.09-.13-2.2-.17-3.27-.38S6.17,22.13,6.2,21c0-.46.1-.93.13-1.4a1.49,1.49,0,0,0-1.21-1.86l-1.24-.43A1.24,1.24,0,0,1,3,15.91c.06-.77.09-1.55.08-2.33a1.55,1.55,0,0,0-1.26-1.7c-1-.24-2-2.66-1.64-3.6a.87.87,0,0,1,1-.51,10.32,10.32,0,0,1,2.05.54,43.6,43.6,0,0,1,7.25,4.11c1.47,1,2.92,2,4.35,3,.33.23.49.18.64-.15.07-.16.15-.32.22-.49a.44.44,0,0,0-.28-.69,2.53,2.53,0,0,1-1.79-2.6,20,20,0,0,1,.08-3.1A3.86,3.86,0,0,1,18,4.85a3.81,3.81,0,0,1,4,3.7,19,19,0,0,1,0,3.29,2.34,2.34,0,0,1-1.67,2.23c-.49.17-.53.35-.32.86.35.81.35.81,1.05.32a85.16,85.16,0,0,1,9.25-5.9A29.19,29.19,0,0,1,33.57,8a2.73,2.73,0,0,1,1.24-.12.78.78,0,0,1,.78.92,4.39,4.39,0,0,1-1.29,2.91,1,1,0,0,1-.54.29,1.23,1.23,0,0,0-1.11,1.23,18.74,18.74,0,0,0,0,2.37c.06,1.2-.13,1.51-1.26,1.9-.4.13-.8.25-1.19.41a1.25,1.25,0,0,0-.9,1.39c0,.6.1,1.19.13,1.79.06,1-.24,1.55-1.21,1.77a27.48,27.48,0,0,1-3.4.44c-.57.05-.56,0-.32.54a57.7,57.7,0,0,1,4.57,15.05c0,.17,0,.35.06.53a1.77,1.77,0,0,1-.91,1.89,12.37,12.37,0,0,1-2.31,1,27.71,27.71,0,0,1-7.25,1C16.81,43.24,15,43.08,13.09,43Z"/><path d="M19.52.74a8.63,8.63,0,0,1,3.39,1.14,5.9,5.9,0,0,1,1.37,1.17,2.45,2.45,0,0,1,0,3.22A10.14,10.14,0,0,1,23,7.37c-.16.14-.29.15-.33-.11a.6.6,0,0,0-.06-.19c-.33-.64-.44-1.17.3-1.7.55-.41.44-1.06-.1-1.59a5,5,0,0,0-2.49-1.23,10,10,0,0,0-5.82.26,5.7,5.7,0,0,0-1.45.8,1.15,1.15,0,0,0,0,2.07c.34.27.42.47.19.83a1.52,1.52,0,0,0-.2.55c-.08.35-.17.47-.54.23-2.23-1.47-2.26-3.74,0-5.23A9.39,9.39,0,0,1,17.65.66C18.27.65,18.9.71,19.52.74Z"/></svg>