<?xml version="1.0" encoding="utf-8"?>
<!-- Generator: Adobe Illustrator 24.1.0, SVG Export Plug-In . SVG Version: 6.00 Build 0)  -->
<svg version="1.1" id="Layer_1" xmlns="http://www.w3.org/2000/svg" x="0px" y="0px"
	 viewBox="0 0 388.5 507" style="enable-background:new 0 0 388.5 507;" xml:space="preserve">
<style type="text/css">
	.st0{fill-rule:evenodd;clip-rule:evenodd;fill:#F7B93F;}
	.st1{fill-rule:evenodd;clip-rule:evenodd;fill:#507E1A;}
	.st2{fill-rule:evenodd;clip-rule:evenodd;fill:#8B572A;}
</style>
<path class="st0" d="M192.5,5l7,14.4l15.8,2.2l-11.5,11.1l2.8,15.7l-14.1-7.6l-14.1,7.5l2.8-15.7l-11.5-11.1l15.8-2.2L192.5,5z"/>
<polygon id="Triangle" class="st1" points="192.5,50.6 285.9,144 99.1,144 "/>
<polygon id="Triangle_1_" class="st1" points="192.5,54.8 311.5,203.4 73.5,203.4 "/>
<polygon id="Triangle_4_" class="st1" points="192.5,74 327.5,262.8 57.5,262.8 "/>
<polygon id="Triangle_2_" class="st1" points="192.5,54.8 344.5,322.2 40.5,322.2 "/>
<polygon id="Triangle_3_" class="st1" points="192.5,193 385,441 0,441 "/>
<polygon id="Triangle_5_" class="st1" points="192.5,119 362.2,381.6 22.8,381.6 "/>
<rect id="Rectangle" x="165" y="441" class="st2" width="55" height="66"/>
</svg>
